<svg width="12" height="12" viewBox="0 0 12 12" fill="none" xmlns="http://www.w3.org/2000/svg">
<path d="M7.5 11.375H4.5C1.785 11.375 0.625 10.215 0.625 7.5V4.5C0.625 1.785 1.785 0.625 4.5 0.625H7.5C10.215 0.625 11.375 1.785 11.375 4.5V7.5C11.375 10.215 10.215 11.375 7.5 11.375ZM4.5 1.375C2.195 1.375 1.375 2.195 1.375 4.5V7.5C1.375 9.805 2.195 10.625 4.5 10.625H7.5C9.805 10.625 10.625 9.805 10.625 7.5V4.5C10.625 2.195 9.805 1.375 7.5 1.375H4.5Z" fill="black"/>
<path d="M5.99813 7.45516C5.90313 7.45516 5.80813 7.42016 5.73313 7.34516L3.96813 5.58016C3.82313 5.43516 3.82313 5.19516 3.96813 5.05016C4.11313 4.90516 4.35313 4.90516 4.49813 5.05016L5.99813 6.55016L7.49813 5.05016C7.64313 4.90516 7.88313 4.90516 8.02813 5.05016C8.17313 5.19516 8.17313 5.43516 8.02813 5.58016L6.26313 7.34516C6.18813 7.42016 6.09313 7.45516 5.99813 7.45516Z" fill="black"/>
</svg>
