<svg width="32" height="32" viewBox="0 0 32 32" fill="none" xmlns="http://www.w3.org/2000/svg">
<path d="M20.0013 30.3346H12.0013C4.7613 30.3346 1.66797 27.2413 1.66797 20.0013V12.0013C1.66797 4.7613 4.7613 1.66797 12.0013 1.66797H20.0013C27.2413 1.66797 30.3346 4.7613 30.3346 12.0013V20.0013C30.3346 27.2413 27.2413 30.3346 20.0013 30.3346ZM12.0013 3.66797C5.85464 3.66797 3.66797 5.85464 3.66797 12.0013V20.0013C3.66797 26.148 5.85464 28.3346 12.0013 28.3346H20.0013C26.148 28.3346 28.3346 26.148 28.3346 20.0013V12.0013C28.3346 5.85464 26.148 3.66797 20.0013 3.66797H12.0013Z" fill="black"/>
<path d="M17.6799 21.7069C17.4266 21.7069 17.1732 21.6135 16.9732 21.4135L12.2666 16.7069C11.8799 16.3202 11.8799 15.6802 12.2666 15.2935L16.9732 10.5869C17.3599 10.2002 17.9999 10.2002 18.3866 10.5869C18.7732 10.9735 18.7732 11.6135 18.3866 12.0002L14.3866 16.0002L18.3866 20.0002C18.7732 20.3869 18.7732 21.0269 18.3866 21.4135C18.1999 21.6135 17.9466 21.7069 17.6799 21.7069Z" fill="black"/>
</svg>
