<svg width="24" height="24" viewBox="0 0 24 24" fill="none" xmlns="http://www.w3.org/2000/svg">
<path d="M16.19 22H7.81C4.17 22 2 19.83 2 16.19L2 7.82C2 4.17 4.17 2 7.81 2H16.18C19.82 2 21.99 4.17 21.99 7.81V16.19C22 19.83 19.83 22 16.19 22ZM13.79 9C14.08 8.71 14.08 8.23 13.79 7.94C13.64 7.79 13.45 7.72 13.26 7.72C13.07 7.72 12.88 7.79 12.73 7.94L9.2 11.47C8.91 11.76 8.91 12.24 9.2 12.53L12.73 16.06C13.02 16.35 13.5 16.35 13.79 16.06C14.08 15.77 14.08 15.29 13.79 15L10.79 12L13.79 9Z" fill="#80011D"/>
</svg>
