<svg width="24" height="24" viewBox="0 0 24 24" fill="none" xmlns="http://www.w3.org/2000/svg">
<path d="M16.19 22H7.81C4.17 22 2 19.83 2 16.19L2 7.82C2 4.17 4.17 2 7.81 2H16.18C19.82 2 21.99 4.17 21.99 7.81V16.19C22 19.83 19.83 22 16.19 22ZM14.79 11.47L11.26 7.94C11.11 7.79 10.92 7.72 10.73 7.72C10.54 7.72 10.35 7.79 10.2 7.94C9.91 8.23 9.91 8.71 10.2 9L13.2 12L10.2 15C9.91 15.29 9.91 15.77 10.2 16.06C10.49 16.35 10.97 16.35 11.26 16.06L14.79 12.53C15.09 12.24 15.09 11.76 14.79 11.47Z" fill="#80011D"/>
</svg>
