<svg width="24" height="24" viewBox="0 0 24 24" fill="none" xmlns="http://www.w3.org/2000/svg">
<path d="M9.5675 18.8172C9.3775 18.8172 9.1875 18.7472 9.0375 18.5972L2.9675 12.5272C2.6775 12.2372 2.6775 11.7572 2.9675 11.4672L9.0375 5.39719C9.3275 5.10719 9.8075 5.10719 10.0975 5.39719C10.3875 5.68719 10.3875 6.16719 10.0975 6.45719L4.5575 11.9972L10.0975 17.5372C10.3875 17.8272 10.3875 18.3072 10.0975 18.5972C9.9575 18.7472 9.7575 18.8172 9.5675 18.8172Z" fill="#80011D"/>
<path d="M20.5019 12.75H3.67188C3.26188 12.75 2.92188 12.41 2.92188 12C2.92188 11.59 3.26188 11.25 3.67188 11.25H20.5019C20.9119 11.25 21.2519 11.59 21.2519 12C21.2519 12.41 20.9119 12.75 20.5019 12.75Z" fill="#1C1C28"/>
</svg>
