<svg width="40" height="40" viewBox="0 0 40 40" fill="none" xmlns="http://www.w3.org/2000/svg">
<rect width="40" height="40" rx="20" fill="#80011D"/>
<path d="M24.1254 23.834H17.0254C16.3654 23.834 15.732 23.554 15.2854 23.0673C14.8387 22.5807 14.612 21.9273 14.6654 21.2673L15.2187 14.6273C15.2387 14.4207 15.1654 14.2207 15.0254 14.0673C14.8854 13.914 14.692 13.834 14.4854 13.834H13.332C13.0587 13.834 12.832 13.6073 12.832 13.334C12.832 13.0607 13.0587 12.834 13.332 12.834H14.492C14.9787 12.834 15.4387 13.0406 15.7654 13.394C15.9454 13.594 16.0787 13.8273 16.152 14.0873H24.4787C25.152 14.0873 25.772 14.354 26.2254 14.834C26.672 15.3207 26.8987 15.954 26.8454 16.6273L26.4854 21.6273C26.412 22.8473 25.3454 23.834 24.1254 23.834ZM16.1854 15.0806L15.6654 21.3473C15.632 21.734 15.7587 22.1006 16.0187 22.3873C16.2787 22.674 16.6387 22.8273 17.0254 22.8273H24.1254C24.8187 22.8273 25.4454 22.2407 25.4987 21.5473L25.8587 16.5473C25.8854 16.154 25.7587 15.7807 25.4987 15.5073C25.2387 15.2273 24.8787 15.074 24.4854 15.074H16.1854V15.0806Z" fill="white"/>
<path d="M22.8333 27.1667C22.1 27.1667 21.5 26.5667 21.5 25.8333C21.5 25.1 22.1 24.5 22.8333 24.5C23.5667 24.5 24.1667 25.1 24.1667 25.8333C24.1667 26.5667 23.5667 27.1667 22.8333 27.1667ZM22.8333 25.5C22.6467 25.5 22.5 25.6467 22.5 25.8333C22.5 26.02 22.6467 26.1667 22.8333 26.1667C23.02 26.1667 23.1667 26.02 23.1667 25.8333C23.1667 25.6467 23.02 25.5 22.8333 25.5Z" fill="white"/>
<path d="M17.5013 27.1667C16.768 27.1667 16.168 26.5667 16.168 25.8333C16.168 25.1 16.768 24.5 17.5013 24.5C18.2346 24.5 18.8346 25.1 18.8346 25.8333C18.8346 26.5667 18.2346 27.1667 17.5013 27.1667ZM17.5013 25.5C17.3146 25.5 17.168 25.6467 17.168 25.8333C17.168 26.02 17.3146 26.1667 17.5013 26.1667C17.688 26.1667 17.8346 26.02 17.8346 25.8333C17.8346 25.6467 17.688 25.5 17.5013 25.5Z" fill="white"/>
<path d="M26 17.834H18C17.7267 17.834 17.5 17.6073 17.5 17.334C17.5 17.0607 17.7267 16.834 18 16.834H26C26.2733 16.834 26.5 17.0607 26.5 17.334C26.5 17.6073 26.2733 17.834 26 17.834Z" fill="white"/>
</svg>
