<svg width="16" height="16" viewBox="0 0 16 16" fill="none" xmlns="http://www.w3.org/2000/svg">
<path d="M8.93333 9.73474C8.80667 9.73474 8.68 9.68807 8.58 9.58807L7.64667 8.65474C7.55333 8.56141 7.5 8.43474 7.5 8.30141V6.44141C7.5 6.16807 7.72667 5.94141 8 5.94141C8.27333 5.94141 8.5 6.16807 8.5 6.44141V8.09474L9.28667 8.88141C9.48 9.07474 9.48 9.39474 9.28667 9.58807C9.18667 9.68807 9.06 9.73474 8.93333 9.73474Z" fill="#4D7A50"/>
<path d="M7.99902 3.51758C10.4726 3.51758 12.4832 5.52744 12.4834 8.00098C12.4834 9.39262 11.853 10.6781 10.7568 11.5391C10.7431 11.5491 10.7326 11.5575 10.7275 11.5615C10.7267 11.5622 10.7262 11.563 10.7256 11.5635L10.7168 11.5693L10.709 11.5762C9.92273 12.1705 8.98931 12.4854 7.99902 12.4854C7.01443 12.4853 6.08838 12.1761 5.30957 11.5889L5.30176 11.583L5.29297 11.5771C5.27566 11.5656 5.26127 11.5568 5.25293 11.5518C5.25197 11.5512 5.2508 11.5503 5.25 11.5498C4.14823 10.6891 3.51563 9.39483 3.51563 8.00098C3.5158 5.52755 5.5256 3.51775 7.99902 3.51758ZM7.99902 3.81836C5.69296 3.81854 3.81658 5.69491 3.81641 8.00098C3.81641 9.28737 4.39161 10.4824 5.40234 11.2822L5.41406 11.291L5.44336 11.3105L5.45215 11.3174C6.93206 12.4619 9.0959 12.4545 10.5684 11.3027L10.5762 11.2959L10.5889 11.29L10.6182 11.2676C11.6144 10.4677 12.1816 9.27992 12.1816 8.00098C12.1815 5.69481 10.3052 3.81836 7.99902 3.81836Z" fill="#4D7A50" stroke="#4D7A50" stroke-width="0.698864"/>
<path d="M8.36705 15.1677H7.64038C6.33371 15.1677 5.53371 14.521 5.19371 13.181L4.86038 11.5344C4.83371 11.3877 4.86705 11.2344 4.96705 11.121C5.06705 11.0077 5.20705 10.941 5.35371 10.941H5.36038C5.47371 10.941 5.58038 10.9744 5.66705 11.0477C7.02038 12.0944 9.00705 12.0877 10.3537 11.0344C10.5604 10.8744 10.887 10.9077 11.0537 11.1144C11.147 11.2277 11.187 11.381 11.1604 11.5277L10.8204 13.1744C10.467 14.521 9.66705 15.1677 8.36705 15.1677ZM6.06038 12.4277L6.16705 12.961C6.42038 13.961 6.94038 14.1677 7.64038 14.1677H8.36705C9.06038 14.1677 9.58038 13.961 9.84038 12.9477L9.94705 12.4277C8.74038 12.961 7.27371 12.9677 6.06038 12.4277Z" fill="#4D7A50"/>
<path d="M10.6655 5.0787C10.5522 5.0787 10.4389 5.0387 10.3522 4.97203C9.00553 3.9187 7.01887 3.91203 5.66553 4.9587C5.45887 5.1187 5.1322 5.08536 4.9722 4.88536C4.87887 4.77203 4.83887 4.6187 4.86553 4.47203L5.1922 2.84536C5.5322 1.4787 6.3322 0.832031 7.63887 0.832031L8.36553 0.832031C9.66553 0.832031 10.4655 1.4787 10.8055 2.80536L11.1522 4.4787C11.1855 4.62536 11.1455 4.7787 11.0522 4.89203C10.9589 5.01203 10.8189 5.0787 10.6655 5.0787ZM7.99887 3.16536C8.68553 3.16536 9.33887 3.30536 9.94553 3.57203L9.8322 3.03203C9.5722 2.04536 9.05887 1.83203 8.36553 1.83203L7.63887 1.83203C6.93887 1.83203 6.41887 2.0387 6.16553 3.06536L6.05887 3.57203C6.66553 3.30536 7.31887 3.16536 7.99887 3.16536Z" fill="#4D7A50"/>
</svg>
