<svg width="32" height="32" viewBox="0 0 32 32" fill="none" xmlns="http://www.w3.org/2000/svg">
<path d="M20.9504 22.3647L9.63664 11.051C9.25009 10.6645 9.25009 10.0233 9.63664 9.63679C10.0232 9.25024 10.6643 9.25024 11.0509 9.63679L22.3646 20.9505C22.7511 21.3371 22.7511 21.9782 22.3646 22.3647C21.978 22.7513 21.3369 22.7513 20.9504 22.3647Z" fill="#1C1C28"/>
<path d="M9.63543 22.3647C9.24888 21.9782 9.24888 21.3371 9.63543 20.9505L20.9491 9.63679C21.3357 9.25024 21.9768 9.25024 22.3634 9.63679C22.7499 10.0233 22.7499 10.6645 22.3634 11.051L11.0496 22.3647C10.6631 22.7513 10.022 22.7513 9.63543 22.3647Z" fill="#1C1C28"/>
</svg>
