<svg width="51" height="51" viewBox="0 0 51 51" fill="none" xmlns="http://www.w3.org/2000/svg">
<path d="M42.6569 6.98828H7.69182C5.76075 6.98828 4.19531 8.55372 4.19531 10.4848V42.6526C4.19531 44.5837 5.76075 46.1491 7.69182 46.1491H42.6569C44.5879 46.1491 46.1534 44.5837 46.1534 42.6526V10.4848C46.1534 8.55372 44.5879 6.98828 42.6569 6.98828Z" fill="#BAD4E5"/>
<path d="M46.1534 11.8871V37.3557L38.7548 44.7543H7.69182C6.76449 44.7543 5.87514 44.3859 5.21941 43.7302C4.56369 43.0744 4.19531 42.1851 4.19531 41.2578V11.8871C4.19531 10.9598 4.56369 10.0704 5.21941 9.41473C5.87514 8.75901 6.76449 8.39062 7.69182 8.39062H42.6569C43.5842 8.39063 44.4735 8.75901 45.1293 9.41473C45.785 10.0704 46.1534 10.9598 46.1534 11.8871Z" fill="#97C0DD"/>
<path d="M46.1534 10.4848V35.9533L38.7548 43.3519H7.69182C6.76449 43.3519 5.87514 42.9835 5.21941 42.3278C4.56369 41.6721 4.19531 40.7827 4.19531 39.8554V10.4848C4.19531 9.55745 4.56369 8.66811 5.21941 8.01238C5.87514 7.35666 6.76449 6.98828 7.69182 6.98828H42.6569C43.5842 6.98828 44.4735 7.35666 45.1293 8.01238C45.785 8.66811 46.1534 9.55745 46.1534 10.4848Z" fill="#EAF3F9"/>
<path d="M46.1535 33.5625V35.9541L38.7549 43.3527H36.3633V37.059C36.3633 36.1317 36.7317 35.2423 37.3874 34.5866C38.0431 33.9309 38.9325 33.5625 39.8598 33.5625H46.1535Z" fill="#C5DEF3"/>
<path d="M46.1533 33.5625V35.9541L38.7547 43.3527H37.7617V37.059C37.7617 36.1317 38.1301 35.2423 38.7858 34.5866C39.4415 33.9309 40.3309 33.5625 41.2582 33.5625H46.1533Z" fill="#D7E9F4"/>
<path d="M42.6569 6.98828H7.69182C6.76483 6.98939 5.87612 7.35813 5.22064 8.01361C4.56516 8.66909 4.19642 9.5578 4.19531 10.4848V16.7785H46.1534V10.4848C46.1522 9.5578 45.7835 8.66909 45.128 8.01361C44.4725 7.35813 43.5838 6.98939 42.6569 6.98828Z" fill="#FB4A34"/>
<path d="M36.3635 13.9849C37.5222 13.9849 38.4614 13.0456 38.4614 11.887C38.4614 10.7283 37.5222 9.78906 36.3635 9.78906C35.2049 9.78906 34.2656 10.7283 34.2656 11.887C34.2656 13.0456 35.2049 13.9849 36.3635 13.9849Z" fill="#DB2E26"/>
<path d="M25.176 13.9849C26.3347 13.9849 27.2739 13.0456 27.2739 11.887C27.2739 10.7283 26.3347 9.78906 25.176 9.78906C24.0174 9.78906 23.0781 10.7283 23.0781 11.887C23.0781 13.0456 24.0174 13.9849 25.176 13.9849Z" fill="#DB2E26"/>
<path d="M14.6877 13.9849C15.8464 13.9849 16.7856 13.0456 16.7856 11.887C16.7856 10.7283 15.8464 9.78906 14.6877 9.78906C13.5291 9.78906 12.5898 10.7283 12.5898 11.887C12.5898 13.0456 13.5291 13.9849 14.6877 13.9849Z" fill="#DB2E26"/>
<path d="M16.7857 6.29321V6.99252H15.3871V6.29321C15.3871 6.10775 15.3135 5.92988 15.1823 5.79873C15.0512 5.66759 14.8733 5.59391 14.6878 5.59391H13.9885C13.8031 5.59391 13.6252 5.66759 13.494 5.79873C13.3629 5.92988 13.2892 6.10775 13.2892 6.29321V10.489C13.2892 10.6745 13.3629 10.8524 13.494 10.9835C13.6252 11.1146 13.8031 11.1883 13.9885 11.1883H14.6878C14.8733 11.1883 15.0512 11.262 15.1823 11.3931C15.3135 11.5243 15.3871 11.7022 15.3871 11.8876C15.3871 12.0731 15.3135 12.251 15.1823 12.3821C15.0512 12.5132 14.8733 12.5869 14.6878 12.5869H13.9885C13.4326 12.5853 12.9 12.3637 12.5069 11.9706C12.1138 11.5776 11.8923 11.0449 11.8906 10.489V6.29321C11.8923 5.73733 12.1138 5.20468 12.5069 4.81161C12.9 4.41853 13.4326 4.19697 13.9885 4.19531H14.6878C15.2437 4.19697 15.7764 4.41853 16.1694 4.81161C16.5625 5.20468 16.7841 5.73733 16.7857 6.29321Z" fill="#3E4042"/>
<path d="M27.274 6.29321V6.99252H25.8754V6.29321C25.8754 6.10775 25.8017 5.92988 25.6706 5.79873C25.5394 5.66759 25.3616 5.59391 25.1761 5.59391H24.4768C24.2913 5.59391 24.1135 5.66759 23.9823 5.79873C23.8512 5.92988 23.7775 6.10775 23.7775 6.29321V10.489C23.7775 10.6745 23.8512 10.8524 23.9823 10.9835C24.1135 11.1146 24.2913 11.1883 24.4768 11.1883H25.1761C25.3616 11.1883 25.5394 11.262 25.6706 11.3931C25.8017 11.5243 25.8754 11.7022 25.8754 11.8876C25.8754 12.0731 25.8017 12.251 25.6706 12.3821C25.5394 12.5132 25.3616 12.5869 25.1761 12.5869H24.4768C23.9209 12.5853 23.3883 12.3637 22.9952 11.9706C22.6021 11.5776 22.3806 11.0449 22.3789 10.489V6.29321C22.3806 5.73733 22.6021 5.20468 22.9952 4.81161C23.3883 4.41853 23.9209 4.19697 24.4768 4.19531H25.1761C25.732 4.19697 26.2646 4.41853 26.6577 4.81161C27.0508 5.20468 27.2724 5.73733 27.274 6.29321Z" fill="#3E4042"/>
<path d="M38.4615 6.29321V6.99252H37.0629V6.29321C37.0629 6.10775 36.9892 5.92988 36.8581 5.79873C36.7269 5.66759 36.5491 5.59391 36.3636 5.59391H35.6643C35.4788 5.59391 35.301 5.66759 35.1698 5.79873C35.0387 5.92988 34.965 6.10775 34.965 6.29321V10.489C34.965 10.6745 35.0387 10.8524 35.1698 10.9835C35.301 11.1146 35.4788 11.1883 35.6643 11.1883H36.3636C36.5491 11.1883 36.7269 11.262 36.8581 11.3931C36.9892 11.5243 37.0629 11.7022 37.0629 11.8876C37.0629 12.0731 36.9892 12.251 36.8581 12.3821C36.7269 12.5132 36.5491 12.5869 36.3636 12.5869H35.6643C35.1084 12.5853 34.5758 12.3637 34.1827 11.9706C33.7896 11.5776 33.5681 11.0449 33.5664 10.489V6.29321C33.5681 5.73733 33.7896 5.20468 34.1827 4.81161C34.5758 4.41853 35.1084 4.19697 35.6643 4.19531H36.3636C36.9195 4.19697 37.4521 4.41853 37.8452 4.81161C38.2383 5.20468 38.4599 5.73733 38.4615 6.29321Z" fill="#3E4042"/>
<path d="M13.2857 34.2656H9.08993C8.70371 34.2656 8.39062 34.5787 8.39062 34.9649V39.1607C8.39062 39.5469 8.70371 39.86 9.08993 39.86H13.2857C13.6719 39.86 13.985 39.5469 13.985 39.1607V34.9649C13.985 34.5787 13.6719 34.2656 13.2857 34.2656Z" fill="#BAD4E5"/>
<path d="M20.2818 34.2656H16.086C15.6998 34.2656 15.3867 34.5787 15.3867 34.9649V39.1607C15.3867 39.5469 15.6998 39.86 16.086 39.86H20.2818C20.668 39.86 20.9811 39.5469 20.9811 39.1607V34.9649C20.9811 34.5787 20.668 34.2656 20.2818 34.2656Z" fill="#BAD4E5"/>
<path d="M27.274 34.2656H23.0782C22.692 34.2656 22.3789 34.5787 22.3789 34.9649V39.1607C22.3789 39.5469 22.692 39.86 23.0782 39.86H27.274C27.6602 39.86 27.9733 39.5469 27.9733 39.1607V34.9649C27.9733 34.5787 27.6602 34.2656 27.274 34.2656Z" fill="#BAD4E5"/>
<path d="M13.2857 27.2695H9.08993C8.70371 27.2695 8.39062 27.5826 8.39062 27.9688V32.1646C8.39062 32.5508 8.70371 32.8639 9.08993 32.8639H13.2857C13.6719 32.8639 13.985 32.5508 13.985 32.1646V27.9688C13.985 27.5826 13.6719 27.2695 13.2857 27.2695Z" fill="#5ED3F2"/>
<path d="M20.2818 27.2695H16.086C15.6998 27.2695 15.3867 27.5826 15.3867 27.9688V32.1646C15.3867 32.5508 15.6998 32.8639 16.086 32.8639H20.2818C20.668 32.8639 20.9811 32.5508 20.9811 32.1646V27.9688C20.9811 27.5826 20.668 27.2695 20.2818 27.2695Z" fill="#BAD4E5"/>
<path d="M27.274 27.2695H23.0782C22.692 27.2695 22.3789 27.5826 22.3789 27.9688V32.1646C22.3789 32.5508 22.692 32.8639 23.0782 32.8639H27.274C27.6602 32.8639 27.9733 32.5508 27.9733 32.1646V27.9688C27.9733 27.5826 27.6602 27.2695 27.274 27.2695Z" fill="#BAD4E5"/>
<path d="M34.2662 27.2695H30.0704C29.6842 27.2695 29.3711 27.5826 29.3711 27.9688V32.1646C29.3711 32.5508 29.6842 32.8639 30.0704 32.8639H34.2662C34.6524 32.8639 34.9655 32.5508 34.9655 32.1646V27.9688C34.9655 27.5826 34.6524 27.2695 34.2662 27.2695Z" fill="#BAD4E5"/>
<path d="M27.274 20.2773H23.0782C22.692 20.2773 22.3789 20.5904 22.3789 20.9766V25.1724C22.3789 25.5587 22.692 25.8717 23.0782 25.8717H27.274C27.6602 25.8717 27.9733 25.5587 27.9733 25.1724V20.9766C27.9733 20.5904 27.6602 20.2773 27.274 20.2773Z" fill="#BAD4E5"/>
<path d="M34.2662 20.2773H30.0704C29.6842 20.2773 29.3711 20.5904 29.3711 20.9766V25.1724C29.3711 25.5587 29.6842 25.8717 30.0704 25.8717H34.2662C34.6524 25.8717 34.9655 25.5587 34.9655 25.1724V20.9766C34.9655 20.5904 34.6524 20.2773 34.2662 20.2773Z" fill="#67AAE6"/>
<path d="M41.2584 20.2773H37.0626C36.6764 20.2773 36.3633 20.5904 36.3633 20.9766V25.1724C36.3633 25.5587 36.6764 25.8717 37.0626 25.8717H41.2584C41.6446 25.8717 41.9577 25.5587 41.9577 25.1724V20.9766C41.9577 20.5904 41.6446 20.2773 41.2584 20.2773Z" fill="#67AAE6"/>
</svg>
