<svg width="51" height="51" viewBox="0 0 51 51" fill="none" xmlns="http://www.w3.org/2000/svg">
<g clip-path="url(#clip0_674_19509)">
<path d="M49.2576 20.994L45.92 7.64302C45.7114 6.85031 45.3151 6.16184 44.7518 5.59855C44.1885 5.03527 43.5 4.63886 42.7073 4.43038L29.3563 1.09276C27.8545 0.717301 26.2482 1.1553 25.1425 2.26093L1.29855 26.1049C-0.432802 27.8362 -0.4329 30.6316 1.29855 32.3632L17.9873 49.0519C19.7187 50.7833 22.5142 50.7832 24.2456 49.0519L48.0895 25.2079C49.1951 24.1022 49.6331 22.4958 49.2576 20.994ZM32.5898 17.7605C30.8584 16.0291 30.8585 13.2336 32.5898 11.5022C34.3213 9.77078 37.1166 9.77078 38.8481 11.5022C40.5797 13.2337 40.5796 16.029 38.8481 17.7605C37.1168 19.4919 34.3213 19.492 32.5898 17.7605Z" fill="#FF6C6C"/>
<path d="M48.0911 25.2069L24.2472 49.0509C22.5158 50.7822 19.7204 50.7823 17.9889 49.0509L9.64453 40.7065L32.5914 17.7596C34.3229 19.4911 37.1184 19.491 38.8497 17.7596C40.5812 16.0282 40.5812 13.2329 38.8497 11.5013L44.7534 5.59766C45.3167 6.16094 45.7131 6.84941 45.9216 7.64212L49.2593 20.9931C49.6349 22.4949 49.1969 24.1013 48.0911 25.2069Z" fill="#FF4949"/>
<path d="M17.9894 24.0173C16.2639 22.2918 16.2639 19.4845 17.9894 17.759C19.7149 16.0334 22.5221 16.0335 24.2477 17.759C25.9733 19.4844 25.9732 22.2917 24.2477 24.0173C22.5222 25.7428 19.7149 25.7427 17.9894 24.0173ZM22.1615 19.845C21.5861 19.2696 20.6509 19.2696 20.0755 19.845C19.5 20.4205 19.5 21.3556 20.0755 21.9311C20.6509 22.5066 21.5861 22.5066 22.1615 21.9311C22.737 21.3556 22.737 20.4205 22.1615 19.845Z" fill="#FFE470"/>
<path d="M20.0753 38.6188C18.3499 36.8933 18.3499 34.0861 20.0753 32.3605C21.8008 30.635 24.6081 30.635 26.3336 32.3605C28.0591 34.086 28.0591 36.8932 26.3336 38.6188C24.6081 40.3442 21.8008 40.3442 20.0753 38.6188ZM24.2475 34.4467C23.672 33.8712 22.7369 33.8712 22.1614 34.4467C21.5859 35.0221 21.5859 35.9572 22.1614 36.5327C22.7369 37.1082 23.672 37.1082 24.2475 36.5327C24.8231 35.9572 24.8231 35.0221 24.2475 34.4467Z" fill="#FFD400"/>
<path d="M31.7145 28.6042L20.4913 29.8557L12.9397 30.6902C12.4598 30.7528 12.0427 30.586 11.7297 30.273C11.5003 30.0435 11.3544 29.7305 11.3125 29.3969C11.2082 28.5831 11.8132 27.853 12.6058 27.7696L23.829 26.5181L31.3806 25.6836C32.1944 25.5793 32.9243 26.1842 33.0078 26.9769C33.1123 27.7905 32.5072 28.5206 31.7145 28.6042Z" fill="#FFE470"/>
<path d="M31.7153 28.6043L20.4922 29.8558L23.8299 26.5181L31.3816 25.6836C32.1953 25.5793 32.9253 26.1842 33.0088 26.9769C33.1131 27.7906 32.508 28.5207 31.7153 28.6043Z" fill="#FFD400"/>
<path d="M49.9117 2.52416L38.8484 13.5876C38.2643 14.1717 37.3465 14.1717 36.7623 13.5876C36.1782 13.0035 36.1782 12.0857 36.7623 11.5015L47.8257 0.4381C48.4098 -0.146033 49.3276 -0.146033 49.9117 0.4381C50.4959 1.02223 50.4959 1.94003 49.9117 2.52416Z" fill="#3E5959"/>
<path d="M36.7617 13.587L49.9112 0.4375C50.4953 1.02163 50.4953 1.93943 49.9112 2.52356L38.8479 13.587C38.2636 14.1711 37.346 14.1711 36.7617 13.587Z" fill="#384949"/>
</g>
<defs>
<clipPath id="clip0_674_19509">
<rect width="50.3497" height="50.3497" fill="white"/>
</clipPath>
</defs>
</svg>
