<svg width="12" height="12" viewBox="0 0 12 12" fill="none" xmlns="http://www.w3.org/2000/svg">
<path d="M5.46344 11.3748C5.22344 11.3748 4.98346 11.3148 4.76346 11.1948C4.31846 10.9448 4.05344 10.4998 4.05344 9.99477V7.31978C4.05344 7.06478 3.88843 6.68977 3.73343 6.49477L1.83344 4.49977C1.51844 4.18477 1.27344 3.63477 1.27344 3.22977V2.06978C1.27344 1.26478 1.88345 0.634766 2.65845 0.634766H9.32843C10.0934 0.634766 10.7134 1.25478 10.7134 2.01978V3.12978C10.7134 3.65478 10.3984 4.25976 10.0984 4.55476C9.95345 4.69976 9.71345 4.69976 9.56845 4.55476C9.42345 4.40976 9.42345 4.16976 9.56845 4.02477C9.75345 3.83977 9.96344 3.42478 9.96344 3.12978V2.01978C9.96344 1.66978 9.67843 1.38477 9.32843 1.38477H2.65845C2.30345 1.38477 2.02344 1.68478 2.02344 2.06978V3.22977C2.02344 3.41477 2.17344 3.77978 2.36844 3.97478L4.29346 5.99977C4.54846 6.31477 4.79843 6.84478 4.79843 7.31978V9.99477C4.79843 10.3248 5.02344 10.4848 5.12344 10.5398C5.33844 10.6598 5.59346 10.6548 5.79346 10.5348L6.49344 10.0848C6.63844 9.99978 6.77844 9.72476 6.77844 9.53976C6.77844 9.33476 6.94844 9.16476 7.15344 9.16476C7.35844 9.16476 7.52844 9.33476 7.52844 9.53976C7.52844 9.98976 7.24843 10.5048 6.89343 10.7198L6.19846 11.1698C5.97346 11.3048 5.71844 11.3748 5.46344 11.3748Z" fill="black"/>
<path d="M8.0336 8.63554C6.9436 8.63554 6.05859 7.75055 6.05859 6.66055C6.05859 5.57055 6.9436 4.68555 8.0336 4.68555C9.1236 4.68555 10.0086 5.57055 10.0086 6.66055C10.0086 7.75055 9.1236 8.63554 8.0336 8.63554ZM8.0336 5.43555C7.3586 5.43555 6.80859 5.98555 6.80859 6.66055C6.80859 7.33555 7.3586 7.88554 8.0336 7.88554C8.7086 7.88554 9.25861 7.33555 9.25861 6.66055C9.25861 5.98555 8.7086 5.43555 8.0336 5.43555Z" fill="black"/>
<path d="M9.93623 8.9343C9.84123 8.9343 9.74625 8.8993 9.67125 8.8243L9.17125 8.3243C9.02625 8.1793 9.02625 7.9393 9.17125 7.7943C9.31625 7.6493 9.55625 7.6493 9.70125 7.7943L10.2012 8.2943C10.3462 8.4393 10.3462 8.6793 10.2012 8.8243C10.1312 8.8943 10.0312 8.9343 9.93623 8.9343Z" fill="black"/>
</svg>
