<svg width="16" height="16" viewBox="0 0 16 16" fill="none" xmlns="http://www.w3.org/2000/svg">
<path d="M11.334 15.1654H4.66732C1.72732 15.1654 0.833984 14.272 0.833984 11.332L0.833984 4.66536C0.833984 1.72536 1.72732 0.832031 4.66732 0.832031L5.66732 0.832031C6.83399 0.832031 7.20065 1.21203 7.66732 1.83203L8.66732 3.16536C8.88732 3.4587 8.92065 3.4987 9.33399 3.4987L11.334 3.4987C14.274 3.4987 15.1673 4.39203 15.1673 7.33203V11.332C15.1673 14.272 14.274 15.1654 11.334 15.1654ZM4.66732 1.83203C2.28065 1.83203 1.83398 2.28536 1.83398 4.66536L1.83398 11.332C1.83398 13.712 2.28065 14.1654 4.66732 14.1654H11.334C13.7207 14.1654 14.1673 13.712 14.1673 11.332V7.33203C14.1673 4.95203 13.7207 4.4987 11.334 4.4987L9.33399 4.4987C8.48065 4.4987 8.20065 4.20537 7.86732 3.76536L6.86732 2.43203C6.52065 1.97203 6.41399 1.83203 5.66732 1.83203L4.66732 1.83203Z" fill="#707070"/>
<path d="M5.33398 1.18164L11.334 1.18164C12.0784 1.18164 12.6033 1.3846 12.9424 1.72363C13.2814 2.06267 13.4844 2.58762 13.4844 3.33203V4.25195C13.4844 4.3323 13.4143 4.40234 13.334 4.40234C13.2536 4.40234 13.1836 4.3323 13.1836 4.25195V3.33203C13.1836 2.7659 13.0643 2.27919 12.7256 1.94043C12.3868 1.60167 11.9001 1.48242 11.334 1.48242L5.33398 1.48242C5.25364 1.48242 5.18359 1.41238 5.18359 1.33203C5.18359 1.25168 5.25364 1.18164 5.33398 1.18164Z" fill="#707070" stroke="#707070" stroke-width="0.698864"/>
</svg>
