<svg width="12" height="12" viewBox="0 0 12 12" fill="none" xmlns="http://www.w3.org/2000/svg">
<path d="M7.98438 11.375H3.98438C2.27437 11.375 1.60938 10.71 1.60938 9V5C1.60938 4.795 1.77938 4.625 1.98438 4.625H9.98438C10.1894 4.625 10.3594 4.795 10.3594 5V9C10.3594 10.71 9.69438 11.375 7.98438 11.375ZM2.35937 5.375V9C2.35937 10.29 2.69438 10.625 3.98438 10.625H7.98438C9.27437 10.625 9.60937 10.29 9.60937 9V5.375H2.35937Z" fill="white"/>
<path d="M9.75 5.375H2.25C1.375 5.375 0.875 4.875 0.875 4V3.5C0.875 2.625 1.375 2.125 2.25 2.125H9.75C10.6 2.125 11.125 2.65 11.125 3.5V4C11.125 4.85 10.6 5.375 9.75 5.375ZM2.25 2.875C1.795 2.875 1.625 3.045 1.625 3.5V4C1.625 4.455 1.795 4.625 2.25 4.625H9.75C10.19 4.625 10.375 4.44 10.375 4V3.5C10.375 3.06 10.19 2.875 9.75 2.875H2.25Z" fill="white"/>
<path d="M5.81956 2.87445H3.05956C2.95456 2.87445 2.85456 2.82945 2.78456 2.75445C2.47956 2.41945 2.48956 1.90445 2.80956 1.58445L3.51956 0.874453C3.84956 0.544453 4.39456 0.544453 4.72456 0.874453L6.08456 2.23445C6.18956 2.33945 6.22456 2.50445 6.16456 2.64445C6.10956 2.78445 5.97456 2.87445 5.81956 2.87445ZM3.33456 2.12445H4.91956L4.19456 1.40445C4.15456 1.36445 4.08956 1.36445 4.04956 1.40445L3.33956 2.11445C3.33956 2.11945 3.33456 2.11945 3.33456 2.12445Z" fill="white"/>
<path d="M8.93504 2.87445H6.17504C6.02504 2.87445 5.88504 2.78445 5.83004 2.64445C5.77004 2.50445 5.80504 2.34445 5.91004 2.23445L7.27004 0.874453C7.60004 0.544453 8.14504 0.544453 8.47504 0.874453L9.18504 1.58445C9.50504 1.90445 9.52004 2.41945 9.21004 2.75445C9.14004 2.82945 9.04004 2.87445 8.93504 2.87445ZM7.08504 2.12445H8.67004C8.66504 2.11945 8.66504 2.11945 8.66004 2.11445L7.95004 1.40445C7.91004 1.36445 7.84504 1.36445 7.80504 1.40445L7.08504 2.12445Z" fill="white"/>
<path d="M4.96875 8.45C4.82875 8.45 4.68375 8.415 4.55375 8.345C4.26875 8.19 4.09375 7.895 4.09375 7.575V5C4.09375 4.795 4.26375 4.625 4.46875 4.625H7.48875C7.69375 4.625 7.86375 4.795 7.86375 5V7.565C7.86375 7.89 7.68875 8.185 7.40375 8.335C7.11875 8.49 6.77375 8.47 6.50375 8.29L6.05875 7.99C6.01875 7.96 5.96375 7.96 5.91875 7.99L5.44875 8.3C5.30375 8.4 5.13375 8.45 4.96875 8.45ZM4.84375 5.375V7.57C4.84375 7.635 4.88375 7.665 4.90875 7.68C4.93375 7.695 4.98375 7.71 5.03875 7.675L5.50875 7.365C5.80375 7.17 6.18375 7.17 6.47375 7.365L6.91875 7.665C6.97375 7.7 7.02375 7.685 7.04875 7.67C7.07375 7.655 7.11375 7.625 7.11375 7.56V5.37H4.84375V5.375Z" fill="white"/>
</svg>
