<svg width="64" height="64" viewBox="0 0 64 64" fill="none" xmlns="http://www.w3.org/2000/svg">
<circle cx="32" cy="32" r="32" transform="matrix(-1 0 0 1 64 0)" fill="#80011D"/>
<path d="M32 53.5C43.86 53.5 53.5 43.86 53.5 32C53.5 20.14 43.86 10.5 32 10.5C20.14 10.5 10.5 20.14 10.5 32C10.5 43.86 20.14 53.5 32 53.5ZM32 13.5C42.2 13.5 50.5 21.8 50.5 32C50.5 42.2 42.2 50.5 32 50.5C21.8 50.5 13.5 42.2 13.5 32C13.5 21.8 21.8 13.5 32 13.5Z" fill="white"/>
<path d="M27 33.5H39C39.82 33.5 40.5 32.82 40.5 32C40.5 31.18 39.82 30.5 39 30.5H27C26.18 30.5 25.5 31.18 25.5 32C25.5 32.82 26.18 33.5 27 33.5Z" fill="white"/>
<path d="M30.9991 39.4989C31.3791 39.4989 31.7591 39.3589 32.0591 39.0589C32.6391 38.4789 32.6391 37.5189 32.0591 36.9389L27.1191 31.9989L32.0591 27.0589C32.6391 26.4789 32.6391 25.5189 32.0591 24.9389C31.4791 24.3589 30.5191 24.3589 29.9391 24.9389L23.9391 30.9389C23.3591 31.5189 23.3591 32.4789 23.9391 33.0589L29.9391 39.0589C30.2391 39.3589 30.6191 39.4989 30.9991 39.4989Z" fill="white"/>
</svg>
