<svg width="64" height="64" viewBox="0 0 64 64" fill="none" xmlns="http://www.w3.org/2000/svg">
<circle cx="32" cy="32" r="32" fill="#80011D"/>
<path d="M32 53.5C20.14 53.5 10.5 43.86 10.5 32C10.5 20.14 20.14 10.5 32 10.5C43.86 10.5 53.5 20.14 53.5 32C53.5 43.86 43.86 53.5 32 53.5ZM32 13.5C21.8 13.5 13.5 21.8 13.5 32C13.5 42.2 21.8 50.5 32 50.5C42.2 50.5 50.5 42.2 50.5 32C50.5 21.8 42.2 13.5 32 13.5Z" fill="white"/>
<path d="M37 33.5H25C24.18 33.5 23.5 32.82 23.5 32C23.5 31.18 24.18 30.5 25 30.5H37C37.82 30.5 38.5 31.18 38.5 32C38.5 32.82 37.82 33.5 37 33.5Z" fill="white"/>
<path d="M33.0009 39.4989C32.6209 39.4989 32.2409 39.3589 31.9409 39.0589C31.3609 38.4789 31.3609 37.5189 31.9409 36.9389L36.8809 31.9989L31.9409 27.0589C31.3609 26.4789 31.3609 25.5189 31.9409 24.9389C32.5209 24.3589 33.4809 24.3589 34.0609 24.9389L40.0609 30.9389C40.6409 31.5189 40.6409 32.4789 40.0609 33.0589L34.0609 39.0589C33.7609 39.3589 33.3809 39.4989 33.0009 39.4989Z" fill="white"/>
</svg>
