<svg width="16" height="16" viewBox="0 0 16 16" fill="none" xmlns="http://www.w3.org/2000/svg">
<path d="M7.28066 13.1664C7.08733 13.1664 6.90065 13.1397 6.74731 13.0797C4.46731 12.2997 0.833984 9.51307 0.833984 5.39307C0.833984 3.27973 2.54065 1.56641 4.64065 1.56641C5.64731 1.56641 6.58731 1.95306 7.28731 2.63973C7.99398 1.95306 8.92731 1.56641 9.93398 1.56641C12.034 1.56641 13.7406 3.27973 13.7406 5.39307C13.7406 5.67973 13.7206 5.97307 13.6806 6.27307C13.6606 6.4264 13.5673 6.5664 13.434 6.6464C13.3006 6.7264 13.134 6.73308 12.9873 6.67308C12.1673 6.31974 11.1473 6.58641 10.614 7.29974C10.5207 7.42641 10.3407 7.49307 10.214 7.49974C10.054 7.49974 9.90732 7.42641 9.81399 7.29974C9.43399 6.79308 8.85398 6.50641 8.22732 6.50641C7.14065 6.50641 6.25399 7.39973 6.25399 8.49973C6.25399 10.2331 7.24732 11.4664 8.08732 12.2064C8.20732 12.3131 8.26732 12.4664 8.25399 12.6264C8.24065 12.7864 8.15398 12.9264 8.01398 13.0131C7.94064 13.0531 7.88064 13.0797 7.84731 13.0864C7.67398 13.1397 7.48066 13.1664 7.28066 13.1664ZM4.64065 2.56641C3.09398 2.56641 1.83398 3.83307 1.83398 5.39307C1.83398 8.87973 4.73399 11.0264 6.40066 11.8531C5.76732 11.0064 5.24731 9.8864 5.24731 8.49306C5.24731 6.83973 6.58064 5.49974 8.22064 5.49974C8.96731 5.49974 9.66732 5.77308 10.2073 6.25975C10.8806 5.65975 11.8407 5.38639 12.734 5.55306C12.734 5.49973 12.734 5.44641 12.734 5.39974C12.734 3.83974 11.474 2.57306 9.92733 2.57306C9.04066 2.57306 8.22064 2.98639 7.68064 3.69973C7.58731 3.82639 7.44066 3.89974 7.28066 3.89974C7.12066 3.89974 6.97399 3.82639 6.88066 3.69973C6.35399 2.97973 5.53398 2.56641 4.64065 2.56641Z" fill="white"/>
<path d="M10.2131 14.4333C10.0598 14.4333 9.89976 14.4133 9.77309 14.3667C9.19976 14.1733 8.2731 13.7 7.42643 12.9467C6.43977 12.0733 5.25977 10.5933 5.25977 8.49333C5.25977 6.83999 6.59309 5.5 8.23309 5.5C8.97976 5.5 9.67975 5.77334 10.2197 6.26001C11.0597 5.50668 12.3398 5.29334 13.3931 5.75334C14.4731 6.23334 15.1731 7.31333 15.1731 8.5C15.1731 11.66 12.3998 13.78 10.6531 14.3733C10.5198 14.4133 10.3664 14.4333 10.2131 14.4333ZM8.22642 6.5C7.13975 6.5 6.25309 7.39333 6.25309 8.49333C6.25309 10.2267 7.24643 11.46 8.08643 12.2C8.82643 12.8533 9.60643 13.26 10.0931 13.42C10.1464 13.44 10.2731 13.44 10.3198 13.42C11.3198 13.08 14.1664 11.4467 14.1664 8.49333C14.1664 7.69999 13.6998 6.98 12.9864 6.66667C12.1798 6.31333 11.1464 6.58 10.6131 7.29333C10.5198 7.42 10.3398 7.48666 10.2131 7.49333C10.0531 7.49333 9.90642 7.42 9.81309 7.29333C9.43309 6.78667 8.85309 6.5 8.22642 6.5Z" fill="white"/>
</svg>
