<svg width="32" height="32" viewBox="0 0 32 32" fill="none" xmlns="http://www.w3.org/2000/svg">
<rect x="0.5" y="0.5" width="31" height="31" rx="15.5" fill="#80011D" fill-opacity="0.1"/>
<rect x="0.5" y="0.5" width="31" height="31" rx="15.5" stroke="#80011D"/>
<path d="M14.92 23.7516C14.63 23.7516 14.35 23.7116 14.12 23.6216C10.7 22.4516 5.25 18.2716 5.25 12.0916C5.25 8.92155 7.80999 6.35156 10.96 6.35156C12.47 6.35156 13.88 6.93155 14.93 7.96155C15.99 6.93155 17.39 6.35156 18.9 6.35156C22.05 6.35156 24.61 8.92155 24.61 12.0916C24.61 12.5216 24.58 12.9616 24.52 13.4116C24.49 13.6416 24.35 13.8516 24.15 13.9716C23.95 14.0916 23.7 14.1016 23.48 14.0116C22.25 13.4816 20.72 13.8816 19.92 14.9516C19.78 15.1416 19.51 15.2416 19.32 15.2516C19.08 15.2516 18.86 15.1416 18.72 14.9516C18.15 14.1916 17.28 13.7616 16.34 13.7616C14.71 13.7616 13.38 15.1016 13.38 16.7516C13.38 19.3516 14.87 21.2016 16.13 22.3116C16.31 22.4716 16.4 22.7016 16.38 22.9416C16.36 23.1816 16.23 23.3915 16.02 23.5215C15.91 23.5815 15.82 23.6216 15.77 23.6316C15.51 23.7116 15.22 23.7516 14.92 23.7516ZM10.96 7.85156C8.63999 7.85156 6.75 9.75155 6.75 12.0916C6.75 17.3216 11.1 20.5416 13.6 21.7816C12.65 20.5116 11.87 18.8315 11.87 16.7415C11.87 14.2615 13.87 12.2516 16.33 12.2516C17.45 12.2516 18.5 12.6616 19.31 13.3916C20.32 12.4916 21.76 12.0815 23.1 12.3315C23.1 12.2515 23.1 12.1716 23.1 12.1016C23.1 9.76156 21.21 7.86154 18.89 7.86154C17.56 7.86154 16.33 8.48154 15.52 9.55154C15.38 9.74154 15.16 9.85156 14.92 9.85156C14.68 9.85156 14.46 9.74154 14.32 9.55154C13.53 8.47154 12.3 7.85156 10.96 7.85156Z" fill="#80011D"/>
<path d="M19.3187 25.65C19.0887 25.65 18.8487 25.62 18.6587 25.55C17.7987 25.26 16.4087 24.55 15.1387 23.42C13.6587 22.11 11.8887 19.89 11.8887 16.74C11.8887 14.26 13.8887 12.25 16.3487 12.25C17.4687 12.25 18.5186 12.66 19.3286 13.39C20.5886 12.26 22.5087 11.94 24.0887 12.63C25.7087 13.35 26.7587 14.97 26.7587 16.75C26.7587 21.49 22.5987 24.67 19.9787 25.56C19.7787 25.62 19.5487 25.65 19.3187 25.65ZM16.3387 13.75C14.7087 13.75 13.3787 15.09 13.3787 16.74C13.3787 19.34 14.8687 21.19 16.1287 22.3C17.2387 23.28 18.4087 23.89 19.1387 24.13C19.2187 24.16 19.4087 24.16 19.4787 24.13C20.9787 23.62 25.2487 21.17 25.2487 16.74C25.2487 15.55 24.5487 14.47 23.4787 14C22.2687 13.47 20.7187 13.87 19.9187 14.94C19.7787 15.13 19.5087 15.23 19.3187 15.24C19.0787 15.24 18.8587 15.13 18.7187 14.94C18.1487 14.18 17.2787 13.75 16.3387 13.75Z" fill="#80011D"/>
</svg>
