<svg width="184" height="184" viewBox="0 0 184 184" fill="none" xmlns="http://www.w3.org/2000/svg">
<g clip-path="url(#clip0_678_23131)">
<path d="M70.0773 95.1911H54.5983C48.095 95.1911 41.6604 93.0258 36.4793 89.0946L16.2102 73.7145C6.78198 66.5604 3.09911 54.2572 7.04612 43.0993C10.8185 32.4352 20.9536 25.1798 32.2656 25.045C43.3189 24.9139 49.599 25.2632 49.8606 25.2783L49.1685 37.4442C49.1081 37.441 42.998 37.1049 32.4104 37.23C26.1861 37.304 20.6093 41.296 18.5339 47.1635C16.3622 53.3023 18.3884 60.0715 23.5759 64.0077L43.8447 79.3879C46.9191 81.721 50.7382 83.0058 54.5975 83.0058H70.0765V95.1911H70.0773Z" fill="#FFD064"/>
<path d="M36.4819 82.6745L16.2128 67.2944C10.2037 62.7346 6.5334 56.0822 5.67989 48.9688C4.55576 58.3653 8.41796 67.7996 16.2128 73.7142L36.4819 89.0944C41.6627 93.0256 48.0976 95.1908 54.6009 95.1908H70.0799V88.771H54.6009C48.0976 88.771 41.6627 86.6057 36.4819 82.6745Z" fill="#ECBE6B"/>
<path d="M113.98 95.1911H129.459C135.963 95.1911 142.397 93.0258 147.578 89.0946L167.848 73.7145C177.276 66.5604 180.959 54.2572 177.012 43.0993C173.239 32.4352 163.104 25.1798 151.792 25.045C140.739 24.9139 134.459 25.2632 134.197 25.2783L134.889 37.4442C134.95 37.441 141.06 37.1049 151.647 37.23C157.872 37.304 163.448 41.296 165.524 47.1635C167.696 53.3023 165.669 60.0715 160.482 64.0077L140.213 79.3879C137.139 81.721 133.32 83.0058 129.46 83.0058H113.981V95.1911H113.98Z" fill="#FFD064"/>
<path d="M177.008 43.1C175.242 38.1082 172.082 33.8637 168.06 30.7461C169.795 32.9828 171.198 35.5085 172.173 38.2649C176.12 49.4228 172.437 61.726 163.009 68.8801L142.739 84.2603C137.559 88.1915 131.124 90.3567 124.621 90.3567H113.977V95.1917H129.456C135.959 95.1917 142.393 93.0265 147.575 89.0953L167.844 73.7151C177.272 66.561 180.955 54.2578 177.008 43.1Z" fill="#ECBE6B"/>
<path d="M111.764 139.822L104.556 134.359C101.458 132.011 99.6382 128.348 99.6382 124.461V100.211H83.3121V124.461C83.3121 128.348 81.4922 132.011 78.3944 134.359L71.1861 139.822C68.9393 141.525 70.1435 145.107 72.9625 145.107H109.987C112.807 145.107 114.011 141.525 111.764 139.822Z" fill="#FFD064"/>
<path d="M111.764 139.822L104.555 134.359C101.457 132.011 99.6376 128.348 99.6376 124.461V100.211H91.1758V124.461C91.1758 128.348 92.9957 132.011 96.0935 134.359L103.302 139.822C105.549 141.525 104.344 145.107 101.525 145.107H109.987C112.806 145.107 114.01 141.525 111.764 139.822Z" fill="#ECBE6B"/>
<path d="M137.816 7.32031H46.2429C44.4885 7.32031 43.0664 8.74236 43.0664 10.4968V43.288C43.0664 57.3277 46.9757 71.09 54.3565 83.0331L62.8126 96.7159C76.0657 118.161 107.203 118.308 120.657 96.988L129.326 83.2512C136.948 71.1737 140.993 57.1847 140.993 42.9035V10.4968C140.993 8.74272 139.571 7.32031 137.816 7.32031Z" fill="#FFE07D"/>
<path d="M137.816 7.32031H123.138V25.049C123.138 39.3302 119.093 53.3196 111.472 65.3971L102.803 79.1339C93.205 94.3426 74.6095 98.6238 59.9258 92.0451L62.8126 96.7163C76.0657 118.161 107.203 118.308 120.657 96.9883L129.326 83.2516C136.948 71.1741 140.993 57.185 140.993 42.9038V10.4968C140.993 8.74272 139.571 7.32031 137.816 7.32031Z" fill="#FFD064"/>
<path d="M91.9988 165.222C74.6158 165.222 57.7479 160.032 43.2183 150.213C29.0899 140.665 17.8303 127.237 10.6572 111.38C10.0265 109.987 10.6453 108.346 12.0386 107.716C13.4323 107.085 15.0724 107.704 15.7024 109.097C29.6038 139.827 59.5523 159.684 91.9988 159.684C124.445 159.684 154.393 139.827 168.295 109.097C168.925 107.705 170.565 107.085 171.959 107.716C173.352 108.346 173.971 109.987 173.34 111.38C166.167 127.237 154.907 140.666 140.779 150.213C126.249 160.032 109.382 165.222 91.9988 165.222Z" fill="#0DC183"/>
<path d="M180.612 104.882C177.587 112.039 172.432 116.699 169.095 115.289C165.759 113.88 165.506 106.935 168.53 99.7776C170.721 94.5921 177.94 86.3488 181.752 82.1998C182.576 81.3035 184.067 81.9339 183.998 83.1489C183.681 88.7742 182.802 99.6971 180.612 104.882Z" fill="#AAD880"/>
<path d="M181.752 82.1999C180.695 83.3506 179.375 84.8172 177.974 86.4455C177.472 91.9637 176.579 98.5407 175.023 102.224C172.892 107.266 169.704 111.065 166.84 112.379C167.268 113.804 168.021 114.835 169.096 115.289C172.432 116.699 177.588 112.04 180.612 104.882C182.803 99.6968 183.681 88.7743 183.999 83.149C184.067 81.9336 182.576 81.3036 181.752 82.1999Z" fill="#80CB8E"/>
<path d="M160.354 120.797C160.581 128.132 157.993 134.165 154.574 134.271C151.155 134.377 148.199 128.516 147.971 121.18C147.807 115.866 150.752 105.943 152.387 100.879C152.741 99.7851 154.269 99.7376 154.689 100.808C156.635 105.761 160.189 115.482 160.354 120.797Z" fill="#AAD880"/>
<path d="M139.677 135.29C142.567 142.036 142.361 148.597 139.217 149.944C136.072 151.291 131.18 146.915 128.29 140.169C126.196 135.282 125.314 124.969 124.987 119.657C124.916 118.51 126.322 117.908 127.104 118.75C130.724 122.651 137.583 130.403 139.677 135.29Z" fill="#AAD880"/>
<path d="M139.677 135.29C137.583 130.403 130.724 122.651 127.104 118.75C126.322 117.907 124.916 118.51 124.987 119.657C125.08 121.176 125.219 123.103 125.419 125.195C128.799 129.112 132.575 133.911 134.035 137.319C136.06 142.044 136.563 146.676 135.604 149.491C136.91 150.201 138.162 150.396 139.217 149.944C142.361 148.597 142.567 142.036 139.677 135.29Z" fill="#80CB8E"/>
<path d="M158.113 151.001C151.183 148.585 146.478 144.008 147.604 140.777C148.73 137.547 155.261 136.887 162.191 139.303C167.212 141.054 175.42 147.359 179.562 150.7C180.457 151.422 179.954 152.866 178.804 152.875C173.482 152.917 163.133 152.752 158.113 151.001Z" fill="#AAD880"/>
<path d="M136.101 166.138C129.171 163.722 124.466 159.144 125.592 155.914C126.719 152.684 133.25 152.024 140.179 154.44C145.2 156.191 153.408 162.495 157.55 165.837C158.445 166.559 157.942 168.003 156.792 168.012C151.471 168.054 141.122 167.888 136.101 166.138Z" fill="#AAD880"/>
<path d="M179.559 150.701C177.875 149.343 175.521 147.496 172.981 145.664C167.388 145.656 158.453 145.372 153.9 143.784C151.502 142.948 149.371 141.853 147.655 140.645C147.637 140.689 147.616 140.732 147.6 140.777C146.474 144.008 151.179 148.585 158.109 151.001C163.129 152.752 173.478 152.917 178.8 152.875C179.95 152.867 180.453 151.423 179.559 150.701Z" fill="#80CB8E"/>
<path d="M157.55 165.837C155.867 164.48 153.513 162.632 150.973 160.8C145.379 160.792 136.445 160.508 131.892 158.921C129.494 158.085 127.363 156.99 125.647 155.781C125.629 155.826 125.608 155.869 125.592 155.914C124.466 159.144 129.171 163.722 136.101 166.138C141.121 167.889 151.471 168.054 156.792 168.012C157.941 168.003 158.445 166.559 157.55 165.837Z" fill="#80CB8E"/>
<path d="M3.38904 104.882C6.41318 112.039 11.5691 116.699 14.9052 115.289C18.2413 113.88 18.4943 106.935 15.4705 99.7776C13.2798 94.5921 6.06027 86.3488 2.24838 82.1998C1.42505 81.3035 -0.0663512 81.9339 0.00228939 83.1489C0.319618 88.7742 1.19829 99.6971 3.38904 104.882Z" fill="#AAD880"/>
<path d="M15.4705 99.7776C13.2798 94.5921 6.06027 86.3488 2.24838 82.1998C1.42506 81.3035 -0.0663512 81.9339 0.00228939 83.1489C0.0906956 84.7162 0.222946 86.6945 0.414852 88.8454C4.07545 93.0943 8.30781 98.4619 9.8966 102.222C11.9907 107.179 12.5121 112.032 11.5274 115.017C12.7457 115.586 13.9072 115.711 14.9052 115.289C18.2416 113.88 18.4946 106.935 15.4705 99.7776Z" fill="#80CB8E"/>
<path d="M23.6467 120.797C23.4196 128.132 26.0071 134.165 29.4262 134.271C32.8453 134.377 35.8015 128.516 36.029 121.18C36.1936 115.866 33.2485 105.943 31.613 100.879C31.2597 99.7851 29.7313 99.7376 29.3112 100.808C27.3651 105.761 23.8113 115.482 23.6467 120.797Z" fill="#AAD880"/>
<path d="M160.353 120.796C160.189 115.482 156.635 105.761 154.689 100.808C154.269 99.7377 152.74 99.7851 152.387 100.879C151.905 102.37 151.311 104.283 150.715 106.374C152.43 111.252 154.19 117.093 154.305 120.796C154.461 125.845 153.284 130.275 151.421 132.582C152.367 133.687 153.445 134.305 154.573 134.27C157.993 134.165 160.581 128.132 160.353 120.796Z" fill="#80CB8E"/>
<path d="M31.61 100.879C31.2567 99.7849 29.7283 99.7378 29.3078 100.808C28.7177 102.31 27.9799 104.252 27.2332 106.375C28.661 111.388 30.0931 117.431 29.977 121.18C29.8246 126.094 28.4471 130.343 26.5273 132.583C27.3715 133.628 28.3569 134.238 29.4232 134.271C32.8423 134.377 35.7985 128.516 36.026 121.18C36.1906 115.866 33.2455 105.943 31.61 100.879Z" fill="#80CB8E"/>
<path d="M44.3252 135.29C41.4347 142.036 41.6406 148.597 44.7852 149.944C47.9297 151.291 52.8219 146.915 55.7123 140.169C57.8064 135.282 58.6879 124.969 59.015 119.657C59.0854 118.51 57.6799 117.908 56.8979 118.75C53.2776 122.651 46.4192 130.403 44.3252 135.29Z" fill="#AAD880"/>
<path d="M56.8965 118.75C55.7669 119.967 54.3223 121.559 52.805 123.322C52.2975 128.422 51.4311 134.344 49.9918 137.704C48.0587 142.215 45.2311 145.663 42.6289 147.052C43.0188 148.469 43.7376 149.496 44.7834 149.944C47.9279 151.291 52.8201 146.915 55.7105 140.169C57.8046 135.281 58.6861 124.968 59.0132 119.657C59.084 118.51 57.6785 117.907 56.8965 118.75Z" fill="#80CB8E"/>
<path d="M25.888 151.001C32.8178 148.585 37.5227 144.008 36.3964 140.777C35.2702 137.547 28.7392 136.887 21.8094 139.303C16.7889 141.054 8.58046 147.359 4.4383 150.7C3.54382 151.422 4.04694 152.866 5.19658 152.875C10.5186 152.917 20.8675 152.752 25.888 151.001Z" fill="#AAD880"/>
<path d="M47.8997 166.138C54.8295 163.722 59.5344 159.144 58.4082 155.914C57.2819 152.684 50.751 152.024 43.8211 154.44C38.8007 156.191 30.5922 162.495 26.45 165.837C25.5555 166.559 26.0587 168.003 27.2083 168.012C32.5299 168.054 42.8789 167.888 47.8997 166.138Z" fill="#AAD880"/>
<path d="M36.3966 140.78C35.9355 139.458 34.5681 138.567 32.639 138.141C31.5752 140.956 27.5689 144.086 22.2466 145.942C18.9116 147.105 13.2263 147.568 8.22448 147.736C6.78195 148.832 5.48101 149.862 4.43846 150.703C3.54362 151.425 4.0471 152.869 5.19674 152.878C10.5184 152.919 20.8673 152.754 25.8881 151.003C32.8179 148.588 37.5229 144.01 36.3966 140.78Z" fill="#80CB8E"/>
<path d="M58.4082 155.913C57.9471 154.591 56.5797 153.7 54.6505 153.273C53.5868 156.089 49.5805 159.219 44.2581 161.075C40.9231 162.238 35.2378 162.701 30.236 162.868C28.7935 163.965 27.4926 164.994 26.45 165.836C25.5555 166.557 26.0587 168.001 27.2083 168.01C32.5299 168.052 42.8789 167.887 47.8997 166.137C54.8295 163.72 59.5344 159.143 58.4082 155.913Z" fill="#80CB8E"/>
<path d="M91.174 74.4065C102.618 74.4065 111.895 65.1295 111.895 53.6857C111.895 42.2419 102.618 32.9648 91.174 32.9648C79.7302 32.9648 70.4531 42.2419 70.4531 53.6857C70.4531 65.1295 79.7302 74.4065 91.174 74.4065Z" fill="#ECBE6B"/>
<path d="M98.8909 34.4531C99.8486 36.8383 100.381 39.4402 100.381 42.1678C100.381 53.6118 91.104 62.8887 79.66 62.8887C76.9324 62.8887 74.3305 62.3564 71.9453 61.3987C75.0057 69.0207 82.4599 74.4052 91.1762 74.4052C102.62 74.4052 111.897 65.1283 111.897 53.6844C111.897 44.9677 106.513 37.5139 98.8909 34.4531Z" fill="#EAB14D"/>
<path d="M92.6884 44.4693L94.858 48.8648C95.0553 49.264 95.4362 49.5411 95.8772 49.6051L100.728 50.3098C101.838 50.4712 102.281 51.8354 101.478 52.6184L97.968 56.0401C97.6489 56.3509 97.5033 56.7991 97.5788 57.2379L98.4075 62.0693C98.5973 63.1747 97.4368 64.0178 96.4439 63.496L92.1052 61.2151C91.7109 61.0077 91.2398 61.0077 90.8455 61.2151L86.5068 63.496C85.5139 64.0178 84.3534 63.1747 84.5432 62.0693L85.3719 57.2379C85.4474 56.7987 85.3018 56.3509 84.9827 56.0401L81.4727 52.6184C80.6695 51.8354 81.1126 50.4712 82.2227 50.3098L87.0735 49.6051C87.5145 49.5411 87.8954 49.264 88.0927 48.8648L90.2623 44.4693C90.7575 43.4634 92.1921 43.4634 92.6884 44.4693Z" fill="#FFE07D"/>
<path d="M101.478 52.6203C102.282 51.8372 101.838 50.473 100.728 50.3116L98.9598 50.0547L94.2459 54.6497C93.7733 55.11 93.5581 55.7734 93.6695 56.4235L94.7282 62.5954L96.4442 63.4975C97.4372 64.0193 98.5976 63.1762 98.4078 62.0708L97.5791 57.2393C97.5036 56.8002 97.6492 56.3524 97.9683 56.0415L101.478 52.6203Z" fill="#FFD064"/>
<path d="M118.914 176.681H65.1458C63.4471 176.681 62.0703 175.304 62.0703 173.606V148.185C62.0703 146.486 63.4474 145.109 65.1458 145.109H118.914C120.613 145.109 121.99 146.487 121.99 148.185V173.606C121.99 175.304 120.613 176.681 118.914 176.681Z" fill="#407093"/>
<path d="M118.923 145.109H113.098V164.722C113.098 166.416 111.724 167.789 110.03 167.789H62.0703V173.614C62.0703 175.308 63.4435 176.681 65.1376 176.681H118.923C120.617 176.681 121.99 175.308 121.99 173.614V148.177C121.99 146.483 120.617 145.109 118.923 145.109Z" fill="#365E7D"/>
</g>
<defs>
<clipPath id="clip0_678_23131">
<rect width="184" height="184" fill="white"/>
</clipPath>
</defs>
</svg>
