<svg width="32" height="32" viewBox="0 0 32 32" fill="none" xmlns="http://www.w3.org/2000/svg">
<path d="M13.3213 30.3733C12.5213 30.3733 11.7613 29.9733 11.2413 29.2667L9.64132 27.1333C9.64132 27.1467 9.57464 27.1066 9.54797 27.1066H9.05465C4.49465 27.1066 1.66797 25.8667 1.66797 19.72V14.3867C1.66797 8.77334 5.09465 7.30668 7.97465 7.05334C8.29465 7.01334 8.66798 7 9.05465 7H17.588C22.4146 7 24.9747 9.56001 24.9747 14.3867V19.72C24.9747 20.1067 24.9613 20.48 24.908 20.84C24.668 23.68 23.2013 27.1066 17.588 27.1066H17.0546L15.4013 29.2667C14.8813 29.9733 14.1213 30.3733 13.3213 30.3733ZM9.05465 9C8.74798 9 8.45464 9.01333 8.17464 9.04C5.08131 9.30666 3.66797 11 3.66797 14.3867V19.72C3.66797 24.2933 5.08131 25.1066 9.05465 25.1066H9.58797C10.188 25.1066 10.868 25.44 11.2413 25.92L12.8413 28.0666C13.1346 28.4667 13.508 28.4667 13.8013 28.0666L15.4013 25.9333C15.788 25.4133 16.4013 25.1066 17.0546 25.1066H17.588C20.9746 25.1066 22.668 23.68 22.9213 20.64C22.9613 20.32 22.9747 20.0267 22.9747 19.72V14.3867C22.9747 10.6667 21.308 9 17.588 9H9.05465Z" fill="#80011D"/>
<path d="M13.3216 18.9206C12.5749 18.9206 11.9883 18.3206 11.9883 17.5872C11.9883 16.8539 12.5883 16.2539 13.3216 16.2539C14.0549 16.2539 14.6549 16.8539 14.6549 17.5872C14.6549 18.3206 14.0683 18.9206 13.3216 18.9206Z" fill="#80011D"/>
<path d="M17.5872 18.9206C16.8406 18.9206 16.2539 18.3206 16.2539 17.5872C16.2539 16.8539 16.8539 16.2539 17.5872 16.2539C18.3206 16.2539 18.9206 16.8539 18.9206 17.5872C18.9206 18.3206 18.3206 18.9206 17.5872 18.9206Z" fill="#80011D"/>
<path d="M9.06771 18.9206C8.32104 18.9206 7.73438 18.3206 7.73438 17.5872C7.73438 16.8539 8.33437 16.2539 9.06771 16.2539C9.80104 16.2539 10.401 16.8539 10.401 17.5872C10.401 18.3206 9.80104 18.9206 9.06771 18.9206Z" fill="#80011D"/>
<path d="M23.9195 21.7213C23.6529 21.7213 23.3862 21.6146 23.1995 21.4146C22.9862 21.2013 22.8929 20.8947 22.9329 20.6013C22.9729 20.3213 22.9862 20.028 22.9862 19.7213V14.388C22.9862 10.668 21.3195 9.0013 17.5995 9.0013H9.06618C8.75951 9.0013 8.46621 9.01463 8.18621 9.0413C7.89288 9.0813 7.58619 8.97462 7.37286 8.77462C7.15953 8.56128 7.03951 8.26798 7.06618 7.97465C7.30618 5.09465 8.78618 1.66797 14.3995 1.66797H22.9329C27.7595 1.66797 30.3195 4.22798 30.3195 9.05465V14.388C30.3195 20.0013 26.8929 21.468 24.0129 21.7213C23.9729 21.7213 23.9462 21.7213 23.9195 21.7213ZM9.22621 7.0013H17.5862C22.4129 7.0013 24.9729 9.56131 24.9729 14.388V19.548C27.2395 18.988 28.3062 17.3213 28.3062 14.388V9.05465C28.3062 5.33465 26.6395 3.66797 22.9195 3.66797H14.3862C11.4529 3.66797 9.79954 4.73464 9.22621 7.0013Z" fill="#80011D"/>
</svg>
