<svg width="18" height="18" viewBox="0 0 18 18" fill="none" xmlns="http://www.w3.org/2000/svg">
<path d="M11.6958 4.14883L13.488 2.35668C13.724 2.12069 14.1066 2.12069 14.3426 2.35668L15.7658 3.77994C16.0018 4.01593 16.0018 4.39854 15.7658 4.63453L13.9737 6.42668M11.6958 4.14883L13.9737 6.42668M11.6958 4.14883L5.19288 10.6518M13.9737 6.42668L7.47073 12.9296M5.19288 10.6518L4.20562 11.639C4.14868 11.696 4.1037 11.7637 4.07331 11.8383L2.55273 15.5698L6.28422 14.0492C6.35879 14.0188 6.42653 13.9738 6.48347 13.9169L7.47073 12.9296M5.19288 10.6518L7.47073 12.9296" stroke="#1773B0" stroke-width="1.4" stroke-linecap="round" stroke-linejoin="round"/>
</svg>
