<svg width="51" height="51" viewBox="0 0 51 51" fill="none" xmlns="http://www.w3.org/2000/svg">
<g clip-path="url(#clip0_674_19488)">
<path d="M41.3975 25.1631V48.8716C41.3975 49.6979 40.7483 50.3473 39.9219 50.3473H10.4092C9.58277 50.3473 8.93359 49.6979 8.93359 48.8716V27.465C8.93359 26.9338 9.22862 26.4617 9.67141 26.196L13.6555 23.8941C13.8917 23.7464 14.1573 23.6875 14.3933 23.6875H20.7387L25.1655 27.465L29.5924 23.6875H39.9219C40.7483 23.6875 41.3975 24.3367 41.3975 25.1631Z" fill="#E63950"/>
<path d="M41.396 25.1631V48.8716C41.396 49.6979 40.7468 50.3473 39.9204 50.3473H25.1641V27.465L29.591 23.6875H39.9204C40.7468 23.6875 41.396 24.3367 41.396 25.1631Z" fill="#D0004F"/>
<path d="M26.1674 2.95237C25.9017 2.48007 25.5475 2.03748 25.1639 1.71265C24.4556 0.974831 23.5703 0.473214 22.5963 0.207699C21.0615 -0.205478 19.4679 0.00110996 18.1103 0.797853C16.2215 1.89002 15.1001 3.92619 15.159 6.11023C15.1885 6.40535 15.3361 10.7929 15.3361 10.7929C15.0114 10.6158 11.647 8.52033 11.647 8.52033C11.2633 8.34325 8.60729 6.33639 5.33139 8.25462C3.97371 9.05156 2.99979 10.3205 2.58651 11.8257C2.17343 13.3605 2.38012 14.9541 3.17677 16.3118C4.79996 19.1449 8.43011 20.0893 11.2338 18.4661L15.0331 16.2725L9.74028 15.9196C9.29523 16.1736 8.79361 16.3073 8.28609 16.3073C7.23121 16.3073 6.25425 15.7468 5.73689 14.8432C5.32479 14.1414 5.22671 13.3719 5.43566 12.5938C5.64176 11.8458 6.136 11.2046 6.82482 10.8011C7.30617 10.5186 7.76441 10.3817 8.22412 10.3817C8.9879 10.3817 9.62046 10.7549 9.95916 10.9552L10.1465 11.0619C10.609 11.3501 13.6093 13.2119 13.9205 13.3819L14.0315 13.4424L14.0064 13.4569L14.0473 13.4587L17.5888 15.5246L18.2774 10.9993L18.2944 10.9457L18.2856 10.6916C18.2856 10.6916 18.1256 6.11682 18.0939 5.80841C18.0781 4.92362 18.6458 3.89757 19.5869 3.35286C20.0466 3.08341 20.5308 2.9508 21.0409 2.9508C21.3031 2.9508 21.5683 2.98681 21.8305 3.05744C22.3046 3.1871 22.7153 3.42349 23.0352 3.75777L23.2572 3.96672C23.3408 4.03588 23.4776 4.19014 23.5929 4.39613C24.2991 5.58933 24.0815 7.17249 23.1102 8.11207C22.9502 8.25757 22.7398 8.41615 22.5482 8.52564L22.4015 8.61034L22.0073 12.2456L24.0126 11.0878C24.4258 10.8517 24.8095 10.5566 25.1636 10.2321C27.0527 8.40238 27.5839 5.3429 26.1674 2.95237Z" fill="#FED843"/>
<path d="M20.7344 23.6875V40.0178C20.7344 40.6081 21.0885 41.1393 21.6493 41.3753C22.1805 41.6115 22.8299 41.4935 23.2429 41.0507L25.1613 39.1619L27.0797 41.0507C27.4928 41.4935 28.1421 41.6114 28.6733 41.3753C29.234 41.1393 29.5882 40.6082 29.5882 40.0178V23.6875H20.7344Z" fill="#FED843"/>
<path d="M48.8703 17.7872H47.3947V16.3116C47.3947 15.4959 46.7347 14.8359 45.9191 14.8359C45.1035 14.8359 44.4435 15.4959 44.4435 16.3116V17.7872H42.9678C42.1522 17.7872 41.4922 18.4472 41.4922 19.2628C41.4922 20.0785 42.1522 20.7385 42.9678 20.7385H44.4435V22.2141C44.4435 23.0297 45.1035 23.6897 45.9191 23.6897C46.7347 23.6897 47.3947 23.0297 47.3947 22.2141V20.7385H48.8703C49.686 20.7385 50.346 20.0785 50.346 19.2628C50.346 18.4472 49.686 17.7872 48.8703 17.7872Z" fill="#FFB64C"/>
<path d="M42.8702 11.8849C43.6851 11.8849 44.3458 11.2242 44.3458 10.4092C44.3458 9.59426 43.6851 8.93359 42.8702 8.93359C42.0552 8.93359 41.3945 9.59426 41.3945 10.4092C41.3945 11.2242 42.0552 11.8849 42.8702 11.8849Z" fill="#FFB64C"/>
<path d="M36.9717 20.7364C37.7867 20.7364 38.4474 20.0758 38.4474 19.2608C38.4474 18.4458 37.7867 17.7852 36.9717 17.7852C36.1568 17.7852 35.4961 18.4458 35.4961 19.2608C35.4961 20.0758 36.1568 20.7364 36.9717 20.7364Z" fill="#FFB64C"/>
<path d="M25.1641 23.6875H29.591V40.0178C29.591 40.6081 29.2368 41.1393 28.6761 41.3753C28.1448 41.6115 27.4955 41.4935 27.0825 41.0507L25.1641 39.1619V23.6875Z" fill="#FFB64C"/>
<path d="M25.1641 10.2304V1.71094C25.5477 2.03567 25.9019 2.47827 26.1676 2.95057C27.5841 5.34109 27.0529 8.40067 25.1641 10.2304Z" fill="#FFB64C"/>
<path d="M37.9444 11.5875L33.5175 3.91422C33.1043 3.20592 32.1894 2.96982 31.4811 3.383L25.1654 7.04256L24.3199 7.53031L7.53911 17.2125L0.817505 21.0907C0.109202 21.4743 -0.225275 22.3892 0.187902 23.0975L4.71317 30.7708C5.12635 31.4792 6.01173 31.7152 6.72003 31.302L25.1654 20.648L37.3837 13.5944C38.092 13.1814 38.3282 12.296 37.9444 11.5875Z" fill="#FF641A"/>
<path d="M37.3823 13.5944L25.1641 20.6479V7.04256L31.4798 3.383C32.1881 2.96982 33.103 3.20592 33.5161 3.91422L37.943 11.5874C38.3268 12.296 38.0906 13.1813 37.3823 13.5944Z" fill="#E63950"/>
</g>
<defs>
<clipPath id="clip0_674_19488">
<rect width="50.3497" height="50.3497" fill="white"/>
</clipPath>
</defs>
</svg>
