<svg width="16" height="16" viewBox="0 0 16 16" fill="none" xmlns="http://www.w3.org/2000/svg">
<path d="M0.832681 6.0013V10.0013C0.832681 13.6213 2.37935 15.168 5.99935 15.168H9.99935C13.6193 15.168 15.166 13.6213 15.166 10.0013V6.0013C15.166 2.3813 13.6193 0.834634 9.99935 0.834634H5.99935C2.37935 0.834634 0.832681 2.3813 0.832681 6.0013ZM14.166 10.0013C14.166 13.0746 13.0727 14.168 9.99935 14.168H5.99935C2.92601 14.168 1.83268 13.0746 1.83268 10.0013V6.0013C1.83268 2.92797 2.92601 1.83463 5.99935 1.83463H9.99935C13.0727 1.83463 14.166 2.92797 14.166 6.0013V10.0013Z" fill="white"/>
<path d="M7.99935 4.33463C5.97268 4.33463 4.33268 5.97463 4.33268 8.0013C4.33268 10.028 6.37268 11.2613 6.37268 11.2613M6.37268 11.2613V9.60797M6.37268 11.2613H4.53935M7.99935 11.668C10.026 11.668 11.666 10.0413 11.666 8.0013C11.666 5.55463 9.62602 4.33463 9.62602 4.33463M9.62602 4.33463H11.4594M9.62602 4.33463V5.9613" stroke="white" stroke-width="1.0483" stroke-linecap="round" stroke-linejoin="round"/>
</svg>
