<svg width="16" height="16" viewBox="0 0 16 16" fill="none" xmlns="http://www.w3.org/2000/svg">
<path d="M12.1273 11.834H5.02731C4.36731 11.834 3.73398 11.554 3.28731 11.0673C2.84065 10.5807 2.61398 9.92731 2.66732 9.26731L3.22065 2.62732C3.24065 2.42065 3.16731 2.22066 3.02731 2.06732C2.88731 1.91399 2.69398 1.83398 2.48731 1.83398H1.33398C1.06065 1.83398 0.833984 1.60732 0.833984 1.33398C0.833984 1.06065 1.06065 0.833984 1.33398 0.833984H2.49399C2.98065 0.833984 3.44065 1.04065 3.76731 1.39398C3.94731 1.59398 4.08065 1.82732 4.15398 2.08732H12.4807C13.154 2.08732 13.774 2.35398 14.2273 2.83398C14.674 3.32065 14.9007 3.95399 14.8473 4.62732L14.4873 9.62732C14.414 10.8473 13.3473 11.834 12.1273 11.834ZM4.18732 3.08065L3.66732 9.34731C3.63398 9.73398 3.76065 10.1006 4.02065 10.3873C4.28065 10.674 4.64065 10.8273 5.02731 10.8273H12.1273C12.8207 10.8273 13.4473 10.2407 13.5007 9.54732L13.8606 4.54732C13.8873 4.15399 13.7607 3.78066 13.5007 3.50732C13.2407 3.22732 12.8806 3.07397 12.4873 3.07397H4.18732V3.08065Z" fill="white"/>
<path d="M10.8333 15.1667C10.1 15.1667 9.5 14.5667 9.5 13.8333C9.5 13.1 10.1 12.5 10.8333 12.5C11.5667 12.5 12.1667 13.1 12.1667 13.8333C12.1667 14.5667 11.5667 15.1667 10.8333 15.1667ZM10.8333 13.5C10.6467 13.5 10.5 13.6467 10.5 13.8333C10.5 14.02 10.6467 14.1667 10.8333 14.1667C11.02 14.1667 11.1667 14.02 11.1667 13.8333C11.1667 13.6467 11.02 13.5 10.8333 13.5Z" fill="white"/>
<path d="M5.49935 15.1667C4.76602 15.1667 4.16602 14.5667 4.16602 13.8333C4.16602 13.1 4.76602 12.5 5.49935 12.5C6.23268 12.5 6.83268 13.1 6.83268 13.8333C6.83268 14.5667 6.23268 15.1667 5.49935 15.1667ZM5.49935 13.5C5.31268 13.5 5.16602 13.6467 5.16602 13.8333C5.16602 14.02 5.31268 14.1667 5.49935 14.1667C5.68602 14.1667 5.83268 14.02 5.83268 13.8333C5.83268 13.6467 5.68602 13.5 5.49935 13.5Z" fill="white"/>
<path d="M14 5.83398H6C5.72667 5.83398 5.5 5.60732 5.5 5.33398C5.5 5.06065 5.72667 4.83398 6 4.83398H14C14.2733 4.83398 14.5 5.06065 14.5 5.33398C14.5 5.60732 14.2733 5.83398 14 5.83398Z" fill="white"/>
</svg>
