<svg width="16" height="16" viewBox="0 0 16 16" fill="none" xmlns="http://www.w3.org/2000/svg">
<path d="M12.1273 11.832L5.02731 11.832C4.36731 11.832 3.73398 11.552 3.28731 11.0654C2.84065 10.5787 2.61398 9.92536 2.66732 9.26536L3.22065 2.62537C3.24065 2.4187 3.16731 2.2187 3.02731 2.06537C2.88731 1.91204 2.69398 1.83203 2.48731 1.83203L1.33398 1.83203C1.06065 1.83203 0.833984 1.60536 0.833984 1.33203C0.833984 1.0587 1.06065 0.832031 1.33398 0.832031L2.49399 0.832031C2.98065 0.832031 3.44065 1.0387 3.76731 1.39203C3.94731 1.59203 4.08065 1.82537 4.15398 2.08537L12.4807 2.08537C13.154 2.08537 13.774 2.35203 14.2273 2.83203C14.674 3.3187 14.9007 3.95203 14.8473 4.62537L14.4873 9.62537C14.414 10.8454 13.3473 11.832 12.1273 11.832ZM4.18732 3.07869L3.66732 9.34536C3.63398 9.73202 3.76065 10.0987 4.02065 10.3854C4.28065 10.672 4.64065 10.8254 5.02731 10.8254L12.1273 10.8254C12.8207 10.8254 13.4473 10.2387 13.5007 9.54537L13.8606 4.54537C13.8873 4.15204 13.7607 3.7787 13.5007 3.50537C13.2407 3.22537 12.8806 3.07202 12.4873 3.07202L4.18732 3.07202V3.07869Z" fill="white"/>
<path d="M10.833 12.8496C11.3732 12.8496 11.8172 13.2928 11.8174 13.833C11.8174 14.3734 11.3734 14.8174 10.833 14.8174C10.2928 14.8172 9.84961 14.3732 9.84961 13.833C9.84979 13.2929 10.2929 12.8498 10.833 12.8496ZM10.833 13.1504C10.4536 13.1506 10.1506 13.4536 10.1504 13.833C10.1504 14.2126 10.4535 14.5155 10.833 14.5156C11.2127 14.5156 11.5156 14.2127 11.5156 13.833C11.5155 13.4535 11.2126 13.1504 10.833 13.1504Z" fill="white" stroke="white" stroke-width="0.698864"/>
<path d="M5.5013 15.1667C4.76797 15.1667 4.16797 14.5667 4.16797 13.8333C4.16797 13.1 4.76797 12.5 5.5013 12.5C6.23464 12.5 6.83464 13.1 6.83464 13.8333C6.83464 14.5667 6.23464 15.1667 5.5013 15.1667ZM5.5013 13.5C5.31464 13.5 5.16797 13.6467 5.16797 13.8333C5.16797 14.02 5.31464 14.1667 5.5013 14.1667C5.68797 14.1667 5.83464 14.02 5.83464 13.8333C5.83464 13.6467 5.68797 13.5 5.5013 13.5Z" fill="white"/>
<path d="M14 5.83203L6 5.83203C5.72667 5.83203 5.5 5.60536 5.5 5.33203C5.5 5.0587 5.72667 4.83203 6 4.83203L14 4.83203C14.2733 4.83203 14.5 5.0587 14.5 5.33203C14.5 5.60536 14.2733 5.83203 14 5.83203Z" fill="white"/>
</svg>
