<svg width="184" height="184" viewBox="0 0 184 184" fill="none" xmlns="http://www.w3.org/2000/svg">
<g clip-path="url(#clip0_678_23011)">
<path d="M92 184C142.81 184 184 142.81 184 92C184 41.1898 142.81 0 92 0C41.1898 0 0 41.1898 0 92C0 142.81 41.1898 184 92 184Z" fill="url(#paint0_linear_678_23011)"/>
<path d="M92 38.2734C62.0774 38.2734 37.7344 62.5758 37.7344 92.4485C37.7344 119.054 57.0605 141.192 82.4237 145.727V93.3448L73.6205 95.5388C72.3145 95.8748 70.9367 95.3397 70.1885 94.2098C69.4402 93.0864 69.4841 91.6144 70.2945 90.5377L89.447 65.0436C90.6502 63.438 93.3498 63.438 94.553 65.0436L113.706 90.5377C114.516 91.6144 114.56 93.0864 113.812 94.2098C113.063 95.3397 111.689 95.8748 110.38 95.5388L101.576 93.3448V145.727C126.94 141.192 146.266 119.054 146.266 92.4485C146.266 62.5758 121.923 38.2734 92 38.2734Z" fill="#80011D"/>
</g>
<defs>
<linearGradient id="paint0_linear_678_23011" x1="92" y1="184" x2="92" y2="0" gradientUnits="userSpaceOnUse">
<stop stop-color="#810039" stop-opacity="0.2"/>
<stop offset="1" stop-color="#F20038" stop-opacity="0.1"/>
</linearGradient>
<clipPath id="clip0_678_23011">
<rect width="184" height="184" fill="white"/>
</clipPath>
</defs>
</svg>
