<svg width="51" height="51" viewBox="0 0 51 51" fill="none" xmlns="http://www.w3.org/2000/svg">
<g clip-path="url(#clip0_674_19416)">
<path d="M25.1748 50.3497C39.0785 50.3497 50.3497 39.0785 50.3497 25.1748C50.3497 11.2712 39.0785 0 25.1748 0C11.2712 0 0 11.2712 0 25.1748C0 39.0785 11.2712 50.3497 25.1748 50.3497Z" fill="url(#paint0_linear_674_19416)"/>
<path d="M40.6077 20.1611C40.4342 19.6271 39.9727 19.2379 39.417 19.1571L30.4907 17.86L26.4987 9.77143C26.2502 9.26794 25.7374 8.94922 25.176 8.94922C24.6145 8.94922 24.1017 9.26794 23.8532 9.77153L19.8612 17.8601L10.9349 19.1572C10.3793 19.238 9.91755 19.6272 9.74408 20.1612C9.57061 20.6951 9.71537 21.2813 10.1174 21.6732L16.5766 27.9693L15.0517 36.8595C14.9568 37.4129 15.1843 37.9723 15.6385 38.3023C16.0929 38.6323 16.695 38.6759 17.192 38.4146L25.176 34.2172L33.1599 38.4146C33.6607 38.6777 34.2625 38.6298 34.7134 38.3023C35.1676 37.9723 35.3952 37.413 35.3003 36.8595L33.7754 27.9693L40.2345 21.6732C40.6365 21.2812 40.7812 20.695 40.6077 20.1611Z" fill="url(#paint1_linear_674_19416)"/>
</g>
<defs>
<linearGradient id="paint0_linear_674_19416" x1="25.1748" y1="50.3497" x2="25.1748" y2="0" gradientUnits="userSpaceOnUse">
<stop stop-color="#FD5900"/>
<stop offset="1" stop-color="#FFDE00"/>
</linearGradient>
<linearGradient id="paint1_linear_674_19416" x1="25.176" y1="38.584" x2="25.176" y2="8.94922" gradientUnits="userSpaceOnUse">
<stop stop-color="#FFE59A"/>
<stop offset="1" stop-color="#FFFFD5"/>
</linearGradient>
<clipPath id="clip0_674_19416">
<rect width="50.3497" height="50.3497" fill="white"/>
</clipPath>
</defs>
</svg>
